<mxfile host="app.diagrams.net" modified="2024-01-03T21:26:58.792Z" agent="Mozilla/5.0 (Windows NT 10.0; Win64; x64) AppleWebKit/537.36 (KHTML, like Gecko) Chrome/120.0.0.0 Safari/537.36" etag="9EfO7mbeYcw9Amw388IO" version="22.1.16" type="device">
  <diagram id="C5RBs43oDa-KdzZeNtuy" name="Page-1">
    <mxGraphModel dx="894" dy="566" grid="0" gridSize="10" guides="1" tooltips="1" connect="1" arrows="1" fold="1" page="1" pageScale="1" pageWidth="827" pageHeight="1169" background="#000000" math="0" shadow="0">
      <root>
        <mxCell id="WIyWlLk6GJQsqaUBKTNV-0" />
        <mxCell id="WIyWlLk6GJQsqaUBKTNV-1" parent="WIyWlLk6GJQsqaUBKTNV-0" />
        <mxCell id="RjF4kjAFAS7lQ9_FdAy0-10" style="edgeStyle=orthogonalEdgeStyle;rounded=0;orthogonalLoop=1;jettySize=auto;html=1;exitX=0.5;exitY=1;exitDx=0;exitDy=0;entryX=0.5;entryY=0;entryDx=0;entryDy=0;strokeColor=#EEEEEE;fontColor=#FFFFFF;" edge="1" parent="WIyWlLk6GJQsqaUBKTNV-1" source="RjF4kjAFAS7lQ9_FdAy0-0" target="RjF4kjAFAS7lQ9_FdAy0-1">
          <mxGeometry relative="1" as="geometry" />
        </mxCell>
        <mxCell id="RjF4kjAFAS7lQ9_FdAy0-11" style="edgeStyle=orthogonalEdgeStyle;rounded=0;orthogonalLoop=1;jettySize=auto;html=1;exitX=0.5;exitY=1;exitDx=0;exitDy=0;entryX=0.5;entryY=0;entryDx=0;entryDy=0;strokeColor=#EEEEEE;fontColor=#FFFFFF;" edge="1" parent="WIyWlLk6GJQsqaUBKTNV-1" source="RjF4kjAFAS7lQ9_FdAy0-0" target="RjF4kjAFAS7lQ9_FdAy0-3">
          <mxGeometry relative="1" as="geometry" />
        </mxCell>
        <mxCell id="RjF4kjAFAS7lQ9_FdAy0-0" value="登入個人訊息系統" style="rounded=0;whiteSpace=wrap;html=1;strokeColor=#BAC8D3;fontColor=#182E3E;fillColor=#B1DDF0;" vertex="1" parent="WIyWlLk6GJQsqaUBKTNV-1">
          <mxGeometry x="338" y="130" width="120" height="60" as="geometry" />
        </mxCell>
        <mxCell id="RjF4kjAFAS7lQ9_FdAy0-9" style="edgeStyle=orthogonalEdgeStyle;rounded=0;orthogonalLoop=1;jettySize=auto;html=1;exitX=0.5;exitY=1;exitDx=0;exitDy=0;entryX=0.5;entryY=0;entryDx=0;entryDy=0;strokeColor=#EEEEEE;fontColor=#FFFFFF;" edge="1" parent="WIyWlLk6GJQsqaUBKTNV-1" source="RjF4kjAFAS7lQ9_FdAy0-1" target="RjF4kjAFAS7lQ9_FdAy0-2">
          <mxGeometry relative="1" as="geometry" />
        </mxCell>
        <mxCell id="RjF4kjAFAS7lQ9_FdAy0-1" value="查詢子系統" style="whiteSpace=wrap;html=1;strokeColor=#BAC8D3;fontColor=#182E3E;fillColor=#B1DDF0;" vertex="1" parent="WIyWlLk6GJQsqaUBKTNV-1">
          <mxGeometry x="170" y="232" width="92" height="64" as="geometry" />
        </mxCell>
        <mxCell id="RjF4kjAFAS7lQ9_FdAy0-2" value="查詢個人日誌" style="whiteSpace=wrap;html=1;strokeColor=#BAC8D3;fontColor=#182E3E;fillColor=#B1DDF0;" vertex="1" parent="WIyWlLk6GJQsqaUBKTNV-1">
          <mxGeometry x="170" y="341" width="92" height="64" as="geometry" />
        </mxCell>
        <mxCell id="RjF4kjAFAS7lQ9_FdAy0-12" style="edgeStyle=orthogonalEdgeStyle;rounded=0;orthogonalLoop=1;jettySize=auto;html=1;exitX=0.5;exitY=1;exitDx=0;exitDy=0;entryX=0.5;entryY=0;entryDx=0;entryDy=0;strokeColor=#EEEEEE;fontColor=#FFFFFF;" edge="1" parent="WIyWlLk6GJQsqaUBKTNV-1" source="RjF4kjAFAS7lQ9_FdAy0-3" target="RjF4kjAFAS7lQ9_FdAy0-4">
          <mxGeometry relative="1" as="geometry" />
        </mxCell>
        <mxCell id="RjF4kjAFAS7lQ9_FdAy0-3" value="管理子系統" style="whiteSpace=wrap;html=1;strokeColor=#BAC8D3;fontColor=#182E3E;fillColor=#B1DDF0;" vertex="1" parent="WIyWlLk6GJQsqaUBKTNV-1">
          <mxGeometry x="525" y="232" width="92" height="64" as="geometry" />
        </mxCell>
        <mxCell id="RjF4kjAFAS7lQ9_FdAy0-13" style="edgeStyle=orthogonalEdgeStyle;rounded=0;orthogonalLoop=1;jettySize=auto;html=1;exitX=0.5;exitY=1;exitDx=0;exitDy=0;entryX=0.5;entryY=0;entryDx=0;entryDy=0;strokeColor=#EEEEEE;fontColor=#FFFFFF;" edge="1" parent="WIyWlLk6GJQsqaUBKTNV-1" source="RjF4kjAFAS7lQ9_FdAy0-4" target="RjF4kjAFAS7lQ9_FdAy0-5">
          <mxGeometry relative="1" as="geometry" />
        </mxCell>
        <mxCell id="RjF4kjAFAS7lQ9_FdAy0-14" style="edgeStyle=orthogonalEdgeStyle;rounded=0;orthogonalLoop=1;jettySize=auto;html=1;exitX=0.5;exitY=1;exitDx=0;exitDy=0;entryX=0.5;entryY=0;entryDx=0;entryDy=0;strokeColor=#EEEEEE;fontColor=#FFFFFF;" edge="1" parent="WIyWlLk6GJQsqaUBKTNV-1" source="RjF4kjAFAS7lQ9_FdAy0-4" target="RjF4kjAFAS7lQ9_FdAy0-8">
          <mxGeometry relative="1" as="geometry" />
        </mxCell>
        <mxCell id="RjF4kjAFAS7lQ9_FdAy0-15" style="edgeStyle=orthogonalEdgeStyle;rounded=0;orthogonalLoop=1;jettySize=auto;html=1;exitX=0.5;exitY=1;exitDx=0;exitDy=0;entryX=0.5;entryY=0;entryDx=0;entryDy=0;strokeColor=#EEEEEE;fontColor=#FFFFFF;" edge="1" parent="WIyWlLk6GJQsqaUBKTNV-1" source="RjF4kjAFAS7lQ9_FdAy0-4" target="RjF4kjAFAS7lQ9_FdAy0-7">
          <mxGeometry relative="1" as="geometry" />
        </mxCell>
        <mxCell id="RjF4kjAFAS7lQ9_FdAy0-16" style="edgeStyle=orthogonalEdgeStyle;rounded=0;orthogonalLoop=1;jettySize=auto;html=1;exitX=0.5;exitY=1;exitDx=0;exitDy=0;entryX=0.5;entryY=0;entryDx=0;entryDy=0;strokeColor=#EEEEEE;fontColor=#FFFFFF;" edge="1" parent="WIyWlLk6GJQsqaUBKTNV-1" source="RjF4kjAFAS7lQ9_FdAy0-4" target="RjF4kjAFAS7lQ9_FdAy0-6">
          <mxGeometry relative="1" as="geometry" />
        </mxCell>
        <mxCell id="RjF4kjAFAS7lQ9_FdAy0-4" value="管理個人日誌" style="whiteSpace=wrap;html=1;strokeColor=#BAC8D3;fontColor=#182E3E;fillColor=#B1DDF0;" vertex="1" parent="WIyWlLk6GJQsqaUBKTNV-1">
          <mxGeometry x="525" y="341" width="92" height="64" as="geometry" />
        </mxCell>
        <mxCell id="RjF4kjAFAS7lQ9_FdAy0-5" value="更新" style="whiteSpace=wrap;html=1;strokeColor=#BAC8D3;fontColor=#182E3E;fillColor=#B1DDF0;" vertex="1" parent="WIyWlLk6GJQsqaUBKTNV-1">
          <mxGeometry x="431" y="463" width="56" height="39" as="geometry" />
        </mxCell>
        <mxCell id="RjF4kjAFAS7lQ9_FdAy0-6" value="插入" style="whiteSpace=wrap;html=1;strokeColor=#BAC8D3;fontColor=#182E3E;fillColor=#B1DDF0;" vertex="1" parent="WIyWlLk6GJQsqaUBKTNV-1">
          <mxGeometry x="668" y="463" width="56" height="39" as="geometry" />
        </mxCell>
        <mxCell id="RjF4kjAFAS7lQ9_FdAy0-7" value="顯示" style="whiteSpace=wrap;html=1;strokeColor=#BAC8D3;fontColor=#182E3E;fillColor=#B1DDF0;" vertex="1" parent="WIyWlLk6GJQsqaUBKTNV-1">
          <mxGeometry x="586" y="463" width="56" height="39" as="geometry" />
        </mxCell>
        <mxCell id="RjF4kjAFAS7lQ9_FdAy0-8" value="刪除" style="whiteSpace=wrap;html=1;strokeColor=#BAC8D3;fontColor=#182E3E;fillColor=#B1DDF0;" vertex="1" parent="WIyWlLk6GJQsqaUBKTNV-1">
          <mxGeometry x="506" y="463" width="56" height="39" as="geometry" />
        </mxCell>
      </root>
    </mxGraphModel>
  </diagram>
</mxfile>
